<?xml version="1.0" standalone="no"?><svg xmlns:xlink="http://www.w3.org/1999/xlink" xmlns="http://www.w3.org/2000/svg" viewBox="0 0 1000 750" preserveAspectRatio="xMaxYMax slice"><g transform="scale(2.6513102775391597)"><rect x="0" y="0" width="377.172" height="282.879" fill="#fcfcfc"/><g transform="translate(18.86,18.86) scale(0.4715) rotate(0)"><rect width="2" height="20" fill="#a8b2d9"/><rect x="4" width="2" height="20" fill="#a8b2d9"/><rect x="8" width="2" height="20" fill="#a8b2d9"/><rect x="12" width="2" height="20" fill="#a8b2d9"/><rect x="16" width="2" height="20" fill="#a8b2d9"/></g><circle cx="70.72500000000001" cy="23.575" r="4.715" fill="#b6b5b6"/><g transform="translate(113.15,18.86) scale(0.4715) rotate(0)"><rect width="2" height="20" fill="#1e1d1e"/><rect x="4" width="2" height="20" fill="#1e1d1e"/><rect x="8" width="2" height="20" fill="#1e1d1e"/><rect x="12" width="2" height="20" fill="#1e1d1e"/><rect x="16" width="2" height="20" fill="#1e1d1e"/></g><circle cx="165.01500000000001" cy="23.575" r="4.715" fill="#a6b0d8"/><g transform="translate(207.44,18.86) scale(0.4715) rotate(0)"><path d="M5 0H10L5 5L0 10V5L5 0Z" fill="#676767"/><path d="M20 15V20H15L20 15Z" fill="#676767"/><path d="M20 5V10L15 15L10 20H5L20 5Z" fill="#676767"/><path d="M15 0H20L5 15.0002L0 20.0002V15.0002L15 0Z" fill="#676767"/></g><g transform="translate(254.59,18.86) scale(0.4715) rotate(0)"><rect width="2" height="20" fill="#a1a1a1"/><rect x="4" width="2" height="20" fill="#a1a1a1"/><rect x="8" width="2" height="20" fill="#a1a1a1"/><rect x="12" width="2" height="20" fill="#a1a1a1"/><rect x="16" width="2" height="20" fill="#a1a1a1"/></g><g transform="translate(301.74,18.86) scale(0.4715) rotate(0)"><path d="M5 0H10L5 5L0 10V5L5 0Z" fill="#c6cce5"/><path d="M20 15V20H15L20 15Z" fill="#c6cce5"/><path d="M20 5V10L15 15L10 20H5L20 5Z" fill="#c6cce5"/><path d="M15 0H20L5 15.0002L0 20.0002V15.0002L15 0Z" fill="#c6cce5"/></g><circle cx="353.59499999999997" cy="23.575" r="4.715" fill="#d1d6ea"/><g transform="translate(18.86,66.01) scale(0.4715) rotate(0)"><rect width="20" height="2" fill="#646364"/><rect y="4" width="20" height="2" fill="#646364"/><rect y="8" width="20" height="2" fill="#646364"/><rect y="12" width="20" height="2" fill="#646364"/><rect y="16" width="20" height="2" fill="#646364"/></g><g transform="translate(66.01,66.01) scale(0.4715) rotate(0)"><rect width="20" height="2" fill="#d6dbec"/><rect y="4" width="20" height="2" fill="#d6dbec"/><rect y="8" width="20" height="2" fill="#d6dbec"/><rect y="12" width="20" height="2" fill="#d6dbec"/><rect y="16" width="20" height="2" fill="#d6dbec"/></g><circle cx="117.86500000000001" cy="70.72500000000001" r="4.715" fill="#f4f5f9"/><g transform="translate(160.3,66.01) scale(0.4715) rotate(0)"><path d="M5 0H10L5 5L0 10V5L5 0Z" fill="#a1a0a1"/><path d="M20 15V20H15L20 15Z" fill="#a1a0a1"/><path d="M20 5V10L15 15L10 20H5L20 5Z" fill="#a1a0a1"/><path d="M15 0H20L5 15.0002L0 20.0002V15.0002L15 0Z" fill="#a1a0a1"/></g><g transform="translate(207.44,66.01) scale(0.4715) rotate(0)"><path d="M5 0H10L5 5L0 10V5L5 0Z" fill="#545354"/><path d="M20 15V20H15L20 15Z" fill="#545354"/><path d="M20 5V10L15 15L10 20H5L20 5Z" fill="#545354"/><path d="M15 0H20L5 15.0002L0 20.0002V15.0002L15 0Z" fill="#545354"/></g><g transform="translate(254.59,66.01) scale(0.4715) rotate(0)"><rect width="2" height="20" fill="#616161"/><rect x="4" width="2" height="20" fill="#616161"/><rect x="8" width="2" height="20" fill="#616161"/><rect x="12" width="2" height="20" fill="#616161"/><rect x="16" width="2" height="20" fill="#616161"/></g><circle cx="306.455" cy="70.72500000000001" r="4.715" fill="#b6bedf"/><circle cx="353.59499999999997" cy="70.72500000000001" r="4.715" fill="#9f9f9f"/><g transform="translate(18.86,113.15) scale(0.4715) rotate(0)"><rect width="2" height="20" fill="#f4f4f4"/><rect x="4" width="2" height="20" fill="#f4f4f4"/><rect x="8" width="2" height="20" fill="#f4f4f4"/><rect x="12" width="2" height="20" fill="#f4f4f4"/><rect x="16" width="2" height="20" fill="#f4f4f4"/></g><g transform="translate(66.01,113.15) scale(0.4715) rotate(0)"><rect width="2" height="20" fill="#eaecf4"/><rect x="4" width="2" height="20" fill="#eaecf4"/><rect x="8" width="2" height="20" fill="#eaecf4"/><rect x="12" width="2" height="20" fill="#eaecf4"/><rect x="16" width="2" height="20" fill="#eaecf4"/></g><g transform="translate(113.15,113.15) scale(0.4715) rotate(0)"><rect width="20" height="2" fill="#383738"/><rect y="4" width="20" height="2" fill="#383738"/><rect y="8" width="20" height="2" fill="#383738"/><rect y="12" width="20" height="2" fill="#383738"/><rect y="16" width="20" height="2" fill="#383738"/></g><g transform="translate(160.3,113.15) scale(0.4715) rotate(0)"><rect width="20" height="2" fill="#f2f3f8"/><rect y="4" width="20" height="2" fill="#f2f3f8"/><rect y="8" width="20" height="2" fill="#f2f3f8"/><rect y="12" width="20" height="2" fill="#f2f3f8"/><rect y="16" width="20" height="2" fill="#f2f3f8"/></g><g transform="translate(207.44,113.15) scale(0.4715) rotate(0)"><path d="M5 0H10L5 5L0 10V5L5 0Z" fill="#b3bcdd"/><path d="M20 15V20H15L20 15Z" fill="#b3bcdd"/><path d="M20 5V10L15 15L10 20H5L20 5Z" fill="#b3bcdd"/><path d="M15 0H20L5 15.0002L0 20.0002V15.0002L15 0Z" fill="#b3bcdd"/></g><g transform="translate(254.59,113.15) scale(0.4715) rotate(0)"><rect width="2" height="20" fill="#e9ebf4"/><rect x="4" width="2" height="20" fill="#e9ebf4"/><rect x="8" width="2" height="20" fill="#e9ebf4"/><rect x="12" width="2" height="20" fill="#e9ebf4"/><rect x="16" width="2" height="20" fill="#e9ebf4"/></g><g transform="translate(301.74,113.15) scale(0.4715) rotate(0)"><rect width="2" height="20" fill="#cfd4e9"/><rect x="4" width="2" height="20" fill="#cfd4e9"/><rect x="8" width="2" height="20" fill="#cfd4e9"/><rect x="12" width="2" height="20" fill="#cfd4e9"/><rect x="16" width="2" height="20" fill="#cfd4e9"/></g><g transform="translate(348.88,113.15) scale(0.4715) rotate(0)"><path d="M5 0H10L5 5L0 10V5L5 0Z" fill="#b4bdde"/><path d="M20 15V20H15L20 15Z" fill="#b4bdde"/><path d="M20 5V10L15 15L10 20H5L20 5Z" fill="#b4bdde"/><path d="M15 0H20L5 15.0002L0 20.0002V15.0002L15 0Z" fill="#b4bdde"/></g><g transform="translate(18.86,160.3) scale(0.4715) rotate(0)"><rect width="2" height="20" fill="#dddddd"/><rect x="4" width="2" height="20" fill="#dddddd"/><rect x="8" width="2" height="20" fill="#dddddd"/><rect x="12" width="2" height="20" fill="#dddddd"/><rect x="16" width="2" height="20" fill="#dddddd"/></g><g transform="translate(66.01,160.3) scale(0.4715) rotate(0)"><path d="M5 0H10L5 5L0 10V5L5 0Z" fill="#eef0f6"/><path d="M20 15V20H15L20 15Z" fill="#eef0f6"/><path d="M20 5V10L15 15L10 20H5L20 5Z" fill="#eef0f6"/><path d="M15 0H20L5 15.0002L0 20.0002V15.0002L15 0Z" fill="#eef0f6"/></g><g transform="translate(113.15,160.3) scale(0.4715) rotate(0)"><rect width="20" height="2" fill="#cfd4e9"/><rect y="4" width="20" height="2" fill="#cfd4e9"/><rect y="8" width="20" height="2" fill="#cfd4e9"/><rect y="12" width="20" height="2" fill="#cfd4e9"/><rect y="16" width="20" height="2" fill="#cfd4e9"/></g><g transform="translate(160.3,160.3) scale(0.4715) rotate(0)"><rect width="20" height="2" fill="#262526"/><rect y="4" width="20" height="2" fill="#262526"/><rect y="8" width="20" height="2" fill="#262526"/><rect y="12" width="20" height="2" fill="#262526"/><rect y="16" width="20" height="2" fill="#262526"/></g><g transform="translate(207.44,160.3) scale(0.4715) rotate(0)"><path d="M5 0H10L5 5L0 10V5L5 0Z" fill="#3b3a3b"/><path d="M20 15V20H15L20 15Z" fill="#3b3a3b"/><path d="M20 5V10L15 15L10 20H5L20 5Z" fill="#3b3a3b"/><path d="M15 0H20L5 15.0002L0 20.0002V15.0002L15 0Z" fill="#3b3a3b"/></g><g transform="translate(254.59,160.3) scale(0.4715) rotate(0)"><rect width="2" height="20" fill="#e8eaf3"/><rect x="4" width="2" height="20" fill="#e8eaf3"/><rect x="8" width="2" height="20" fill="#e8eaf3"/><rect x="12" width="2" height="20" fill="#e8eaf3"/><rect x="16" width="2" height="20" fill="#e8eaf3"/></g><g transform="translate(301.74,160.3) scale(0.4715) rotate(0)"><rect width="2" height="20" fill="#cdcdcd"/><rect x="4" width="2" height="20" fill="#cdcdcd"/><rect x="8" width="2" height="20" fill="#cdcdcd"/><rect x="12" width="2" height="20" fill="#cdcdcd"/><rect x="16" width="2" height="20" fill="#cdcdcd"/></g><g transform="translate(348.88,160.3) scale(0.4715) rotate(0)"><rect width="2" height="20" fill="#8d8d8d"/><rect x="4" width="2" height="20" fill="#8d8d8d"/><rect x="8" width="2" height="20" fill="#8d8d8d"/><rect x="12" width="2" height="20" fill="#8d8d8d"/><rect x="16" width="2" height="20" fill="#8d8d8d"/></g><g transform="translate(18.86,207.44) scale(0.4715) rotate(0)"><rect width="20" height="2" fill="#b1badd"/><rect y="4" width="20" height="2" fill="#b1badd"/><rect y="8" width="20" height="2" fill="#b1badd"/><rect y="12" width="20" height="2" fill="#b1badd"/><rect y="16" width="20" height="2" fill="#b1badd"/></g><g transform="translate(66.01,207.44) scale(0.4715) rotate(0)"><path d="M5 0H10L5 5L0 10V5L5 0Z" fill="#bdbcbd"/><path d="M20 15V20H15L20 15Z" fill="#bdbcbd"/><path d="M20 5V10L15 15L10 20H5L20 5Z" fill="#bdbcbd"/><path d="M15 0H20L5 15.0002L0 20.0002V15.0002L15 0Z" fill="#bdbcbd"/></g><circle cx="117.86500000000001" cy="212.155" r="4.715" fill="#e8e8e8"/><g transform="translate(160.3,207.44) scale(0.4715) rotate(0)"><path d="M5 0H10L5 5L0 10V5L5 0Z" fill="#a9b3d9"/><path d="M20 15V20H15L20 15Z" fill="#a9b3d9"/><path d="M20 5V10L15 15L10 20H5L20 5Z" fill="#a9b3d9"/><path d="M15 0H20L5 15.0002L0 20.0002V15.0002L15 0Z" fill="#a9b3d9"/></g><circle cx="212.155" cy="212.155" r="4.715" fill="#dbdfee"/><g transform="translate(254.59,207.44) scale(0.4715) rotate(0)"><rect width="2" height="20" fill="#c5cbe5"/><rect x="4" width="2" height="20" fill="#c5cbe5"/><rect x="8" width="2" height="20" fill="#c5cbe5"/><rect x="12" width="2" height="20" fill="#c5cbe5"/><rect x="16" width="2" height="20" fill="#c5cbe5"/></g><g transform="translate(301.74,207.44) scale(0.4715) rotate(0)"><rect width="2" height="20" fill="#767576"/><rect x="4" width="2" height="20" fill="#767576"/><rect x="8" width="2" height="20" fill="#767576"/><rect x="12" width="2" height="20" fill="#767576"/><rect x="16" width="2" height="20" fill="#767576"/></g><g transform="translate(348.88,207.44) scale(0.4715) rotate(0)"><path d="M5 0H10L5 5L0 10V5L5 0Z" fill="#abb5da"/><path d="M20 15V20H15L20 15Z" fill="#abb5da"/><path d="M20 5V10L15 15L10 20H5L20 5Z" fill="#abb5da"/><path d="M15 0H20L5 15.0002L0 20.0002V15.0002L15 0Z" fill="#abb5da"/></g><circle cx="23.575" cy="259.305" r="4.715" fill="#c8cee6"/><g transform="translate(66.01,254.59) scale(0.4715) rotate(0)"><path d="M5 0H10L5 5L0 10V5L5 0Z" fill="#acb5db"/><path d="M20 15V20H15L20 15Z" fill="#acb5db"/><path d="M20 5V10L15 15L10 20H5L20 5Z" fill="#acb5db"/><path d="M15 0H20L5 15.0002L0 20.0002V15.0002L15 0Z" fill="#acb5db"/></g><g transform="translate(113.15,254.59) scale(0.4715) rotate(0)"><rect width="20" height="2" fill="#d6daec"/><rect y="4" width="20" height="2" fill="#d6daec"/><rect y="8" width="20" height="2" fill="#d6daec"/><rect y="12" width="20" height="2" fill="#d6daec"/><rect y="16" width="20" height="2" fill="#d6daec"/></g><g transform="translate(160.3,254.59) scale(0.4715) rotate(0)"><rect width="20" height="2" fill="#e8eaf3"/><rect y="4" width="20" height="2" fill="#e8eaf3"/><rect y="8" width="20" height="2" fill="#e8eaf3"/><rect y="12" width="20" height="2" fill="#e8eaf3"/><rect y="16" width="20" height="2" fill="#e8eaf3"/></g><g transform="translate(207.44,254.59) scale(0.4715) rotate(0)"><rect width="2" height="20" fill="#d9dded"/><rect x="4" width="2" height="20" fill="#d9dded"/><rect x="8" width="2" height="20" fill="#d9dded"/><rect x="12" width="2" height="20" fill="#d9dded"/><rect x="16" width="2" height="20" fill="#d9dded"/></g><circle cx="259.305" cy="259.305" r="4.715" fill="#a6b0d8"/><circle cx="306.455" cy="259.305" r="4.715" fill="#cbcbcb"/><g transform="translate(348.88,254.59) scale(0.4715) rotate(0)"><rect width="20" height="2" fill="#3e3d3e"/><rect y="4" width="20" height="2" fill="#3e3d3e"/><rect y="8" width="20" height="2" fill="#3e3d3e"/><rect y="12" width="20" height="2" fill="#3e3d3e"/><rect y="16" width="20" height="2" fill="#3e3d3e"/></g></g></svg>